<svg id="Layer_1" data-name="Layer 1" xmlns="http://www.w3.org/2000/svg" viewBox="0 0 20 20"><defs><style>.cls-1{fill:#e2e2e2;}</style></defs><title>icons</title><path class="cls-1" d="M15.68,3.19H16.8c.24,0,.48,0,.73,0a1.71,1.71,0,0,1,1.53,1.53c0,.24,0,.49,0,.73l0,.27a1,1,0,0,1-.42.59,4.19,4.19,0,0,0-.33.26l-.4.31-1.07.81-.05,0c-.38.26-.75.54-1.12.82-.14.09-.27.19-.41.3l-.73.53c-.28.2-.56.4-.83.61a1.66,1.66,0,0,0-.3.22l-.08,0c-.74.51-1.42,1.1-2.18,1.58a3.05,3.05,0,0,1-.91.39l-.23,0H9.78a3.57,3.57,0,0,1-.92-.4c-.46-.29-.89-.63-1.33-1s-.61-.45-.93-.67A4,4,0,0,0,6.27,10c-.26-.21-.53-.4-.81-.59S5,9,4.73,8.87a3.08,3.08,0,0,0-.41-.3L3.2,7.74h0L3,7.57l-.93-.69a2.88,2.88,0,0,0-.34-.27l-.28-.22A1.18,1.18,0,0,1,1,5.78l0-.31c0-.24,0-.48,0-.72A1.7,1.7,0,0,1,2.48,3.21c.24,0,.48,0,.72,0H15.68Z"/><path class="cls-1" d="M4.32,16.81H2.56a1.69,1.69,0,0,1-1.06-.43A1.72,1.72,0,0,1,1,15.66L1,15.37c0-.27,0-.55,0-.82V8.87c0-.32,0-.63,0-.95,0-.15,0-.24.17-.26s.16,0,.23.07c.24.2.48.39.73.56s.53.41.81.6a1.91,1.91,0,0,0,.33.25c.36.28.73.54,1.1.81a.21.21,0,0,0,.1.06c.34.27.7.53,1.06.78l.5.36c.21.16.42.32.64.47l1.11.84a6,6,0,0,0,1.15.67A2.39,2.39,0,0,0,10,13.4a2.64,2.64,0,0,0,1.14-.26,6,6,0,0,0,1.12-.66,1.39,1.39,0,0,0,.27-.21l.87-.65.67-.49c.16-.1.31-.22.47-.34l.19-.13.85-.63a.3.3,0,0,0,.1-.07c.37-.27.75-.54,1.11-.82a2.42,2.42,0,0,0,.36-.27c.28-.19.54-.39.81-.6s.46-.34.68-.52l.12-.07a.18.18,0,0,1,.27.08.33.33,0,0,1,0,.17c0,.31,0,.63,0,.94v5.68c0,.23,0,.46,0,.7a1.71,1.71,0,0,1-1.47,1.54c-.27,0-.53,0-.79,0H4.32Z"/></svg>