<svg id="Layer_1" data-name="Layer 1" xmlns="http://www.w3.org/2000/svg" viewBox="0 0 20 20"><defs><style>.cls-1{fill:#e2e2e2;}</style></defs><title>icons</title><path class="cls-1" d="M1.11,14.6v-.14a.49.49,0,0,0,0-.17s0,0,0,0v-.06a.14.14,0,0,0,.05-.08.87.87,0,0,1,.47-.47l1.14-.49a4.17,4.17,0,0,0,.57-.26,1.57,1.57,0,0,0,.38-.14c.24-.11.49-.2.72-.32A3.54,3.54,0,0,0,5,12.22L5.56,12a.84.84,0,0,1,.9.23,1.73,1.73,0,0,0,.21.25c.23.3.47.59.71.87l.39.47.4.5s0,0,.08,0c.21-.12.44-.21.64-.34L9,13.93a7.6,7.6,0,0,0,.9-.57l.08,0,.09-.05a12.75,12.75,0,0,0,2.72-2.57c.17-.22.35-.44.5-.68l0,0,.15-.22a7.4,7.4,0,0,0,.5-.86c.14-.2.23-.43.35-.64,0,0,0-.06,0-.09l-.49-.39a4.87,4.87,0,0,0-.5-.4l-.05-.06-1-.81a.85.85,0,0,1-.24-.26A.92.92,0,0,1,12,5.59c0-.13.11-.25.16-.38a1.16,1.16,0,0,0,.1-.28,2.71,2.71,0,0,0,.22-.49c.17-.36.33-.74.48-1.11s.29-.65.42-1a.26.26,0,0,0,.05-.12l.25-.57a.85.85,0,0,1,.81-.55l.19,0c.3.08.6.15.91.21s.71.18,1.07.25.76.18,1.14.26l.37.09a.93.93,0,0,1,.54.29,1.28,1.28,0,0,1,.19.34c0,.25,0,.5,0,.75s0,.66-.07,1-.1.85-.18,1.26-.12.69-.2,1-.22.78-.33,1.17-.34,1-.55,1.44c-.12.27-.24.53-.37.8l0,0c-.2.4-.42.78-.65,1.17s-.45.67-.67,1l-.31.41-.58.71-.51.56-.55.55-.57.51-.71.59-.41.3a.41.41,0,0,1-.11.07c-.35.25-.71.48-1.07.71s-.69.37-1,.56l-.24.11-.87.4a.52.52,0,0,0-.15.06l-1,.34-1.12.32-1.12.24-1.11.15a14.47,14.47,0,0,1-1.61.08,1.33,1.33,0,0,1-.28,0,1.06,1.06,0,0,1-.33-.18,1.41,1.41,0,0,1-.34-.79l0-.1s0-.06,0-.09c-.08-.34-.16-.69-.25-1s-.09-.46-.15-.69a2.26,2.26,0,0,0-.11-.43V15.5c0-.14-.07-.28-.1-.42a2.36,2.36,0,0,0-.1-.38v-.1Z"/></svg>