<svg id="Layer_1" data-name="Layer 1" xmlns="http://www.w3.org/2000/svg" viewBox="0 0 20 20"><defs><style>.cls-1{fill:#e2e2e2;}</style></defs><title>icons</title><path class="cls-1" d="M7,2.07a8.15,8.15,0,0,1,.76-.55,5.79,5.79,0,0,1,.67-.31l.45-.15A7.54,7.54,0,0,1,9.67.94a5,5,0,0,1,.67,0h.18l.62.12a5.49,5.49,0,0,1,1.1.44,6.16,6.16,0,0,1,.78.56l.38.39.15.17c.14.18.25.37.38.56a6.57,6.57,0,0,1,.47,1.13,1.55,1.55,0,0,0,0,.21c0,.15.05.3.08.46l0,.47,0,.38s0,.07,0,.11c0,.22-.08.44-.11.65a6.13,6.13,0,0,1-.46,1.12,5.7,5.7,0,0,1-.54.75l-.4.39a4.12,4.12,0,0,1-.72.52l-.41.21a5.76,5.76,0,0,1-.73.27,7.18,7.18,0,0,1-.81.12L10,10l-.41,0-.73-.12A6.43,6.43,0,0,1,7.74,9.4,6.05,6.05,0,0,1,7,8.84l-.35-.35L6.5,8.34a5.67,5.67,0,0,1-.45-.64,5.49,5.49,0,0,1-.44-1.1l-.13-.66,0-.47,0-.38c0-.26.07-.51.12-.76,0-.1.07-.19.09-.29a5.38,5.38,0,0,1,.38-.85,4.83,4.83,0,0,1,.54-.74Z"/><path class="cls-1" d="M17.92,15.39a1.23,1.23,0,0,0,0,.27v1.69A1.7,1.7,0,0,1,16.62,19a2,2,0,0,1-.48.05H3.85A2.1,2.1,0,0,1,3.2,19a1.7,1.7,0,0,1-.9-.75,1.61,1.61,0,0,1-.23-.8c0-.21,0-.42,0-.62V15.66l0-.15a4.49,4.49,0,0,1,.16-.89.17.17,0,0,0,0-.1c0-.15.11-.29.16-.43a4.42,4.42,0,0,1,.34-.69l.45-.6.53-.54.6-.43a5.75,5.75,0,0,1,1.13-.51l.17,0a6.75,6.75,0,0,1,.76-.14H6.6a8,8,0,0,1,.85,0,1.48,1.48,0,0,0,.29.12l.17.07a5.32,5.32,0,0,0,.95.25,4.85,4.85,0,0,0,1.14.11h.47a3,3,0,0,0,.67-.1h.09a6.4,6.4,0,0,0,1.2-.37.51.51,0,0,1,.27-.06h.89c.06,0,.14,0,.21,0a6.52,6.52,0,0,1,.74.16,4.85,4.85,0,0,1,1.14.51c.2.13.4.28.59.42l.53.54c.15.19.3.39.44.6s.11.2.16.31a6.07,6.07,0,0,1,.35.83l.06.28C17.85,15,17.88,15.2,17.92,15.39Z"/></svg>