<svg id="Layer_1" data-name="Layer 1" xmlns="http://www.w3.org/2000/svg" viewBox="0 0 20 20"><defs><style>.cls-1{fill:#e2e2e2;}</style></defs><title>icons</title><path class="cls-1" d="M17.93,19.05a.25.25,0,0,1-.12,0H2.2c-.11,0-.13,0-.13-.13,0-.33,0-.67,0-1V15.66c.12,0,.25,0,.37,0a1.87,1.87,0,0,0,.76-.27l.16-.1a6.54,6.54,0,0,0,.52-.4,1.26,1.26,0,0,1,1-.32,1.43,1.43,0,0,1,.52.23l.32.26a2.67,2.67,0,0,0,.84.51,2.45,2.45,0,0,0,1.14.09,2.19,2.19,0,0,0,1.12-.52l.2-.16a1.68,1.68,0,0,1,.71-.4l.23,0,.29,0a1.4,1.4,0,0,1,.47.24l.38.3a2.1,2.1,0,0,0,1.11.53,2.49,2.49,0,0,0,1.15-.09l.1,0a3.69,3.69,0,0,0,1-.71,1.58,1.58,0,0,1,.47-.23,1.32,1.32,0,0,1,.56,0l.1,0a1.88,1.88,0,0,1,.56.37,3.22,3.22,0,0,0,.53.38l.12.07a2.1,2.1,0,0,0,1,.25h0v3.4Z"/><path class="cls-1" d="M14.08,2.08a1.15,1.15,0,0,0,.41-.72c0-.11,0-.22,0-.34s0-.09.09-.08a1.42,1.42,0,0,1,.49.42,3.35,3.35,0,0,1,.39.72,3.8,3.8,0,0,1,.15.58v.59c0,.14-.07.27-.11.4a1,1,0,0,1-.31.45,1.18,1.18,0,0,1-.4.21h-.06l0,0h-.21l-.23,0a1.12,1.12,0,0,1-.89-.93l0-.19V2.9s0-.06,0-.1a1,1,0,0,1,.28-.42C13.85,2.28,14,2.19,14.08,2.08Z"/><path class="cls-1" d="M9.55,2.08a1.1,1.1,0,0,0,.36-.54A1.44,1.44,0,0,0,10,1c0-.07,0-.1.09-.09a1.32,1.32,0,0,1,.36.26,2.74,2.74,0,0,1,.52.89,2.29,2.29,0,0,1,.15,1.1v.06s0,0,0,.07a1.16,1.16,0,0,1-.87,1l-.23,0-.23,0a1.1,1.1,0,0,1-.86-.82l0,0V3.38l0-.19V3l0,0V2.93l0,0a.82.82,0,0,1,.2-.38C9.24,2.36,9.42,2.24,9.55,2.08Z"/><path class="cls-1" d="M5,2.08a.88.88,0,0,0,.29-.35A1.53,1.53,0,0,0,5.46,1c0-.07,0-.1.1-.09a1.51,1.51,0,0,1,.58.54,4.2,4.2,0,0,1,.3.6,3.92,3.92,0,0,1,.15.59,3,3,0,0,1,0,.52v.09s0,0,0,0a1.18,1.18,0,0,1-.82,1h0l-.23,0-.23,0a1.12,1.12,0,0,1-.83-.72s0-.09-.06-.13v-.1a.5.5,0,0,0,0-.17,1.1,1.1,0,0,0,0-.26s0,0,0-.05a.88.88,0,0,1,.3-.48A3.31,3.31,0,0,0,5,2.08Z"/><path class="cls-1" d="M5.47,4.89H6.6v4c0,.36,0,.71,0,1.07,0,.05,0,.07.07.07H8.8s.07,0,.07-.07c0-.36,0-.71,0-1.07V4.91c.33,0,.66,0,1,0a.38.38,0,0,0,.15,0h1.13v4c0,.36,0,.71,0,1.07,0,.05,0,.07.07.07h2.13c.06,0,.07,0,.07-.07,0-.36,0-.71,0-1.07V4.91c.33,0,.67,0,1,0a.28.28,0,0,0,.13,0h1.12c0,.05,0,.09,0,.13a2.26,2.26,0,0,0,0,.45V6.61a2.77,2.77,0,0,0,0,.5,4.28,4.28,0,0,0,0,.62V8.86c0,.36,0,.72,0,1.09,0,.05,0,.05.07.05h.54a1.68,1.68,0,0,1,1.64,1.5c0,.25,0,.5,0,.76v2.12c0,.14,0,.14-.15.13h-.06a1.19,1.19,0,0,1-.46-.2L16.79,14a2,2,0,0,0-1.12-.52,2.32,2.32,0,0,0-1.14.08l-.22.09a5.37,5.37,0,0,0-.94.68,1.89,1.89,0,0,1-.5.23,1.38,1.38,0,0,1-1.14-.38,2.83,2.83,0,0,0-.59-.44,1.86,1.86,0,0,0-.79-.27,1.37,1.37,0,0,0-.35,0,2,2,0,0,0-1.16.31A2.69,2.69,0,0,0,8.4,14L8,14.31a1.06,1.06,0,0,1-.71.21H7.1l0,0a1,1,0,0,1-.46-.23c-.17-.14-.33-.28-.51-.41a1.68,1.68,0,0,0-.63-.34,2.21,2.21,0,0,0-1.14-.08A2,2,0,0,0,3.21,14L3.13,14a2.08,2.08,0,0,1-.83.5c-.23,0-.23,0-.23-.21V11.72A1.71,1.71,0,0,1,3.43,10a3.94,3.94,0,0,1,.77,0c.16,0,.14,0,.14-.14V9a.37.37,0,0,0,0-.11,6.6,6.6,0,0,0,0-.77,1.63,1.63,0,0,0,0-.38V6.61a6.77,6.77,0,0,0,0-.78,1.45,1.45,0,0,0,0-.36V4.92s.11,0,.16,0h.87A.22.22,0,0,0,5.47,4.89Z"/></svg>