<svg id="Layer_1" data-name="Layer 1" xmlns="http://www.w3.org/2000/svg" viewBox="0 0 380 20"><defs><style>.cls-1{fill:#e2e2e2;}.cls-2{fill:none;}</style></defs><title>icons</title><path class="cls-1" d="M137.93,19.05a.25.25,0,0,1-.12,0H122.2c-.11,0-.13,0-.13-.13,0-.33,0-.67,0-1V15.66c.12,0,.25,0,.37,0a1.87,1.87,0,0,0,.76-.27l.16-.1a6.54,6.54,0,0,0,.52-.4,1.26,1.26,0,0,1,1-.32,1.43,1.43,0,0,1,.52.23l.32.26a2.67,2.67,0,0,0,.84.51,2.45,2.45,0,0,0,1.14.09,2.19,2.19,0,0,0,1.12-.52l.2-.16a1.68,1.68,0,0,1,.71-.4l.23,0,.29,0a1.4,1.4,0,0,1,.47.24l.38.3a2.1,2.1,0,0,0,1.11.53,2.49,2.49,0,0,0,1.15-.09l.1,0a3.69,3.69,0,0,0,1-.71,1.58,1.58,0,0,1,.47-.23,1.32,1.32,0,0,1,.56,0l.1,0a1.88,1.88,0,0,1,.56.37,3.22,3.22,0,0,0,.53.38l.12.07a2.1,2.1,0,0,0,1,.25h0v3.4Z"/><path class="cls-1" d="M134.08,2.08a1.15,1.15,0,0,0,.41-.72c0-.11,0-.22,0-.34s0-.09.09-.08a1.42,1.42,0,0,1,.49.42,3.35,3.35,0,0,1,.39.72,3.8,3.8,0,0,1,.15.58v.59c0,.14-.07.27-.11.4a1,1,0,0,1-.31.45,1.18,1.18,0,0,1-.4.21h-.06l0,0h-.21l-.23,0a1.12,1.12,0,0,1-.89-.93l0-.19V2.9s0-.06,0-.1a1,1,0,0,1,.28-.42C133.85,2.28,134,2.19,134.08,2.08Z"/><path class="cls-1" d="M129.55,2.08a1.1,1.1,0,0,0,.36-.54A1.44,1.44,0,0,0,130,1c0-.07,0-.1.09-.09a1.32,1.32,0,0,1,.36.26,2.74,2.74,0,0,1,.52.89,2.29,2.29,0,0,1,.15,1.1v.06s0,0,0,.07a1.16,1.16,0,0,1-.87,1l-.23,0-.23,0a1.1,1.1,0,0,1-.86-.82l0,0V3.38l0-.19V3l0,0V2.93l0,0a.82.82,0,0,1,.2-.38C129.24,2.36,129.42,2.24,129.55,2.08Z"/><path class="cls-1" d="M125,2.08a.88.88,0,0,0,.29-.35,1.53,1.53,0,0,0,.16-.7c0-.07,0-.1.1-.09a1.51,1.51,0,0,1,.58.54,4.2,4.2,0,0,1,.3.6,3.92,3.92,0,0,1,.15.59,3,3,0,0,1,0,.52v.09s0,0,0,0a1.18,1.18,0,0,1-.82,1h0l-.23,0-.23,0a1.12,1.12,0,0,1-.83-.72s0-.09-.06-.13v-.1a.5.5,0,0,0,0-.17,1.1,1.1,0,0,0,0-.26s0,0,0-.05a.88.88,0,0,1,.3-.48A3.31,3.31,0,0,0,125,2.08Z"/><path class="cls-1" d="M125.47,4.89h1.13v4c0,.36,0,.71,0,1.07,0,.05,0,.07.07.07h2.13s.07,0,.07-.07c0-.36,0-.71,0-1.07V4.91c.33,0,.66,0,1,0a.38.38,0,0,0,.15,0h1.13v4c0,.36,0,.71,0,1.07,0,.05,0,.07.07.07h2.13c.06,0,.07,0,.07-.07,0-.36,0-.71,0-1.07V4.91c.33,0,.67,0,1,0a.28.28,0,0,0,.13,0h1.12c0,.05,0,.09,0,.13a2.26,2.26,0,0,0,0,.45V6.61a2.77,2.77,0,0,0,0,.5,4.28,4.28,0,0,0,0,.62V8.86c0,.36,0,.72,0,1.09,0,.05,0,.05.07.05h.54a1.68,1.68,0,0,1,1.64,1.5c0,.25,0,.5,0,.76v2.12c0,.14,0,.14-.15.13h-.06a1.19,1.19,0,0,1-.46-.2l-.47-.36a2,2,0,0,0-1.12-.52,2.32,2.32,0,0,0-1.14.08l-.22.09a5.37,5.37,0,0,0-.94.68,1.89,1.89,0,0,1-.5.23,1.38,1.38,0,0,1-1.14-.38,2.83,2.83,0,0,0-.59-.44,1.86,1.86,0,0,0-.79-.27,1.37,1.37,0,0,0-.35,0,2,2,0,0,0-1.16.31,2.69,2.69,0,0,0-.44.31l-.37.29a1.06,1.06,0,0,1-.71.21h-.22l0,0a1,1,0,0,1-.46-.23c-.17-.14-.33-.28-.51-.41a1.68,1.68,0,0,0-.63-.34,2.21,2.21,0,0,0-1.14-.08,2,2,0,0,0-1.12.52l-.08.06a2.08,2.08,0,0,1-.83.5c-.23,0-.23,0-.23-.21V11.72A1.71,1.71,0,0,1,123.43,10a3.94,3.94,0,0,1,.77,0c.16,0,.14,0,.14-.14V9a.37.37,0,0,0,0-.11,6.6,6.6,0,0,0,0-.77,1.63,1.63,0,0,0,0-.38V6.61a6.77,6.77,0,0,0,0-.78,1.45,1.45,0,0,0,0-.36V4.92s.11,0,.16,0h.87A.22.22,0,0,0,125.47,4.89Z"/><path class="cls-1" d="M87,2.07a8.15,8.15,0,0,1,.76-.55,5.79,5.79,0,0,1,.67-.31l.45-.15a7.54,7.54,0,0,1,.81-.12,5,5,0,0,1,.67,0h.18l.62.12a5.49,5.49,0,0,1,1.1.44,6.16,6.16,0,0,1,.78.56l.38.39.15.17c.14.18.25.37.38.56a6.57,6.57,0,0,1,.47,1.13,1.55,1.55,0,0,0,0,.21c0,.15,0,.3.08.46l0,.47,0,.38s0,.07,0,.11c0,.22-.08.44-.11.65a6.13,6.13,0,0,1-.46,1.12,5.7,5.7,0,0,1-.54.75l-.4.39a4.12,4.12,0,0,1-.72.52l-.41.21a5.76,5.76,0,0,1-.73.27,7.18,7.18,0,0,1-.81.12L90,10l-.41,0-.73-.12a6.43,6.43,0,0,1-1.12-.46A6.05,6.05,0,0,1,87,8.84l-.35-.35-.12-.15a5.67,5.67,0,0,1-.45-.64,5.49,5.49,0,0,1-.44-1.1l-.13-.66,0-.47,0-.38c0-.26.07-.51.12-.76,0-.1.07-.19.09-.29a5.38,5.38,0,0,1,.38-.85,4.83,4.83,0,0,1,.54-.74Z"/><path class="cls-1" d="M97.92,15.39a1.23,1.23,0,0,0,0,.27v1.69A1.7,1.7,0,0,1,96.62,19a2,2,0,0,1-.48.05H83.85a2.1,2.1,0,0,1-.65-.1,1.7,1.7,0,0,1-.9-.75,1.61,1.61,0,0,1-.23-.8c0-.21,0-.42,0-.62V15.66l0-.15a4.49,4.49,0,0,1,.16-.89.17.17,0,0,0,0-.1c0-.15.11-.29.16-.43a4.42,4.42,0,0,1,.34-.69l.45-.6.53-.54.6-.43a5.75,5.75,0,0,1,1.13-.51l.17,0a6.75,6.75,0,0,1,.76-.14h.21a8,8,0,0,1,.85,0,1.48,1.48,0,0,0,.29.12l.17.07a5.32,5.32,0,0,0,1,.25,4.85,4.85,0,0,0,1.14.11h.47a3,3,0,0,0,.67-.1h.09a6.4,6.4,0,0,0,1.2-.37.51.51,0,0,1,.27-.06h.89c.06,0,.14,0,.21,0a6.52,6.52,0,0,1,.74.16,4.85,4.85,0,0,1,1.14.51c.2.13.4.28.59.42l.53.54c.15.19.3.39.44.6s.11.2.16.31a6.07,6.07,0,0,1,.35.83l.06.28C97.85,15,97.88,15.2,97.92,15.39Z"/><path class="cls-1" d="M1.11,14.6v-.14a.49.49,0,0,0,0-.17s0,0,0,0v-.06a.14.14,0,0,0,.05-.08.87.87,0,0,1,.47-.47l1.14-.49a4.17,4.17,0,0,0,.57-.26,1.57,1.57,0,0,0,.38-.14c.24-.11.49-.2.72-.32A3.54,3.54,0,0,0,5,12.22L5.56,12a.84.84,0,0,1,.9.23,1.73,1.73,0,0,0,.21.25c.23.3.47.59.71.87l.39.47.4.5s0,0,.08,0c.21-.12.44-.21.64-.34L9,13.93a7.6,7.6,0,0,0,.9-.57l.08,0,.09-.05a12.75,12.75,0,0,0,2.72-2.57c.17-.22.35-.44.5-.68l0,0,.15-.22a7.4,7.4,0,0,0,.5-.86c.14-.2.23-.43.35-.64,0,0,0-.06,0-.09l-.49-.39a4.87,4.87,0,0,0-.5-.4l-.05-.06-1-.81a.85.85,0,0,1-.24-.26A.92.92,0,0,1,12,5.59c0-.13.11-.25.16-.38a1.16,1.16,0,0,0,.1-.28,2.71,2.71,0,0,0,.22-.49c.17-.36.33-.74.48-1.11s.29-.65.42-1a.26.26,0,0,0,.05-.12l.25-.57a.85.85,0,0,1,.81-.55l.19,0c.3.08.6.15.91.21s.71.18,1.07.25.76.18,1.14.26l.37.09a.93.93,0,0,1,.54.29,1.28,1.28,0,0,1,.19.34c0,.25,0,.5,0,.75s0,.66-.07,1-.1.85-.18,1.26-.12.69-.2,1-.22.78-.33,1.17-.34,1-.55,1.44c-.12.27-.24.53-.37.8l0,0c-.2.4-.42.78-.65,1.17s-.45.67-.67,1l-.31.41-.58.71-.51.56-.55.55-.57.51-.71.59-.41.3a.41.41,0,0,1-.11.07c-.35.25-.71.48-1.07.71s-.69.37-1,.56l-.24.11-.87.4a.52.52,0,0,0-.15.06l-1,.34-1.12.32-1.12.24-1.11.15a14.47,14.47,0,0,1-1.61.08,1.33,1.33,0,0,1-.28,0,1.06,1.06,0,0,1-.33-.18,1.41,1.41,0,0,1-.34-.79l0-.1s0-.06,0-.09c-.08-.34-.16-.69-.25-1s-.09-.46-.15-.69a2.26,2.26,0,0,0-.11-.43V15.5c0-.14-.07-.28-.1-.42a2.36,2.36,0,0,0-.1-.38v-.1Z"/><path class="cls-1" d="M46.62,1.82a9.39,9.39,0,0,1,1.12-.51A10.83,10.83,0,0,1,48.86,1,9.71,9.71,0,0,1,50.07.93a7.22,7.22,0,0,1,2.06.34l.13,0a7.76,7.76,0,0,1,1.13.53,4.17,4.17,0,0,0,.46.26c0,.08.11.1.16.15l.53.41.53.54c.2.24.4.49.58.74l.25.4a8.91,8.91,0,0,1,.52,1.13c.08.28.17.55.23.83a6.26,6.26,0,0,1,.15,1.43V8a6.22,6.22,0,0,1-.13,1.21,6.09,6.09,0,0,1-.25.83,8.5,8.5,0,0,1-.54,1.09l-.21.37-.5.79-.9,1.33-.66,1a2.32,2.32,0,0,0-.22.3l-.57.81-.56.81a3.29,3.29,0,0,0-.23.33c-.27.38-.54.76-.79,1.14a.66.66,0,0,0-.12.17l-.41.57a.84.84,0,0,1-.92.36h0a1.14,1.14,0,0,1-.53-.44c-.11-.18-.24-.35-.36-.52a.45.45,0,0,0-.1-.14c-.26-.39-.53-.78-.81-1.16a1.94,1.94,0,0,0-.23-.33c-.17-.27-.36-.53-.54-.79s-.36-.53-.56-.78a1.61,1.61,0,0,0-.24-.34s0-.06-.05-.09l-.48-.69-1-1.5a3.46,3.46,0,0,1-.22-.31,1.07,1.07,0,0,1-.13-.21,1,1,0,0,0-.15-.25,2.64,2.64,0,0,0-.2-.37A8.18,8.18,0,0,1,43.58,10l0-.08a5.89,5.89,0,0,1-.29-1.17,8.89,8.89,0,0,1-.06-1V7.58a7.84,7.84,0,0,1,.15-1.29c.06-.28.15-.55.23-.82a9.74,9.74,0,0,1,.52-1.14l.25-.39c.18-.26.38-.5.58-.75l.53-.53.73-.57Zm4.52,8.5a1.81,1.81,0,0,0,.54-.31,2.37,2.37,0,0,0,.38-.33.89.89,0,0,0,.22-.29,1.36,1.36,0,0,0,.29-.49,2.63,2.63,0,0,0,.26-1.17,2.26,2.26,0,0,0,0-.26,2.34,2.34,0,0,0-.23-.86A1.81,1.81,0,0,0,52.26,6a2.21,2.21,0,0,0-.57-.57,1.89,1.89,0,0,0-.55-.32,2.83,2.83,0,0,0-2.28,0,1.89,1.89,0,0,0-.55.32,2.25,2.25,0,0,0-.59.6,1.62,1.62,0,0,0-.31.54,2.54,2.54,0,0,0-.24,1.12,2.65,2.65,0,0,0,.24,1.14,2.12,2.12,0,0,0,.33.56,2.28,2.28,0,0,0,.58.58,1.94,1.94,0,0,0,.54.31,2.49,2.49,0,0,0,1.14.24,2.19,2.19,0,0,0,.51,0A2,2,0,0,0,51.14,10.32Z"/><path class="cls-1" d="M215.68,3.19h1.12c.24,0,.48,0,.73,0a1.71,1.71,0,0,1,1.53,1.53c0,.24,0,.49,0,.73l0,.27a1,1,0,0,1-.42.59,4.19,4.19,0,0,0-.33.26l-.4.31-1.07.81-.05,0c-.38.26-.75.54-1.12.82-.14.09-.27.19-.41.3l-.73.53c-.28.2-.56.4-.83.61a1.66,1.66,0,0,0-.3.22l-.08,0c-.74.51-1.42,1.1-2.18,1.58a3.05,3.05,0,0,1-.91.39l-.23,0h-.22a3.57,3.57,0,0,1-.92-.4c-.46-.29-.89-.63-1.33-1s-.61-.45-.93-.67a4,4,0,0,0-.33-.24c-.26-.21-.53-.4-.81-.59s-.48-.36-.73-.53a3.08,3.08,0,0,0-.41-.3l-1.12-.83h0l-.2-.16-.93-.69a2.88,2.88,0,0,0-.34-.27l-.28-.22a1.18,1.18,0,0,1-.49-.61l0-.31c0-.24,0-.48,0-.72a1.7,1.7,0,0,1,1.54-1.54c.24,0,.48,0,.72,0h12.48Z"/><path class="cls-1" d="M204.32,16.81h-1.76a1.69,1.69,0,0,1-1.06-.43,1.72,1.72,0,0,1-.48-.71l-.07-.29c0-.27,0-.55,0-.82V8.87c0-.32,0-.63,0-.95,0-.15,0-.24.17-.26s.16,0,.23.07c.24.2.48.39.73.56s.53.41.81.6a1.91,1.91,0,0,0,.33.25c.36.28.73.54,1.1.81a.21.21,0,0,0,.1.06c.34.27.7.53,1.06.78l.5.36c.21.16.42.32.64.47l1.11.84a6,6,0,0,0,1.15.67,2.39,2.39,0,0,0,1.14.27,2.64,2.64,0,0,0,1.14-.26,6,6,0,0,0,1.12-.66,1.39,1.39,0,0,0,.27-.21l.87-.65.67-.49c.16-.1.31-.22.47-.34l.19-.13.85-.63a.3.3,0,0,0,.1-.07c.37-.27.75-.54,1.11-.82a2.42,2.42,0,0,0,.36-.27c.28-.19.54-.39.81-.6s.46-.34.68-.52l.12-.07a.18.18,0,0,1,.27.08.33.33,0,0,1,0,.17c0,.31,0,.63,0,.94v5.68c0,.23,0,.46,0,.7a1.71,1.71,0,0,1-1.47,1.54c-.27,0-.53,0-.79,0H204.32Z"/><path class="cls-1" d="M161,17.75a.45.45,0,0,1,0-.2l.12-.15c.16-.2.33-.39.47-.6a5.67,5.67,0,0,0,.52-.76,3,3,0,0,0,.23-.38,5,5,0,0,0,.5-1.11,2.54,2.54,0,0,0,.15-.44.08.08,0,0,0,0-.09,6.66,6.66,0,0,1-.56-.62l-.29-.39c-.14-.25-.31-.49-.44-.75a9.36,9.36,0,0,1-.46-1.14,6.69,6.69,0,0,1-.22-2,6,6,0,0,1,.2-1.27l0-.13a8.4,8.4,0,0,1,.44-1.12l.46-.76.28-.38.42-.49a9.14,9.14,0,0,1,1.55-1.3c.28-.18.57-.33.85-.49l.29-.14c.38-.17.76-.32,1.14-.46s.75-.21,1.12-.3l.33,0c.27-.05.54-.08.81-.12a.76.76,0,0,0,.21,0l.93,0c.32,0,.63,0,.95,0a8.33,8.33,0,0,1,1.22.17h.09c.38.1.76.19,1.14.31l.27.09q.44.16.87.36l.33.16.8.47c.3.2.59.42.88.65l.24.22a8.35,8.35,0,0,1,.86.92l.28.38.46.76a8.4,8.4,0,0,1,.44,1.12c0,.23.11.46.15.69a6.33,6.33,0,0,1,0,1.79c0,.3-.11.59-.18.89a7.18,7.18,0,0,1-.46,1.16l-.45.76-.28.38-.21.25c-.2.24-.42.45-.64.67l-.24.2c-.28.23-.58.45-.88.66l-.79.46-.36.18a11.25,11.25,0,0,1-1.14.45l-.33.1-.8.21h-.07a8,8,0,0,1-.83.14c-.45.06-.91.07-1.36.09a12.13,12.13,0,0,1-1.48-.11l-.78-.13c-.38-.09-.76-.19-1.14-.31l-.36-.13a.07.07,0,0,0-.09,0c-.22.18-.46.35-.69.51l-.25.15c-.29.16-.59.32-.89.46s-.74.29-1.12.41-.47.11-.71.15a10.37,10.37,0,0,1-1.25.12l-.13,0A.33.33,0,0,1,161,17.75Z"/><rect class="cls-2" x="200" width="20" height="20"/><rect class="cls-2" width="20" height="20"/><rect class="cls-2" x="40" width="20" height="20"/><rect class="cls-2" x="80" width="20" height="20"/><rect class="cls-2" x="120" width="20" height="20"/><rect class="cls-2" x="160" width="20" height="20"/><rect class="cls-2" x="240" width="20" height="20"/><rect class="cls-2" x="280" width="20" height="20"/><rect class="cls-2" x="320" width="20" height="20"/><rect class="cls-2" x="360" width="20" height="20"/></svg>