<svg id="Layer_1" data-name="Layer 1" xmlns="http://www.w3.org/2000/svg" viewBox="0 0 20 20"><defs><style>.cls-1{fill:#e2e2e2;}</style></defs><title>icons</title><path class="cls-1" d="M6.62,1.82a9.39,9.39,0,0,1,1.12-.51A10.83,10.83,0,0,1,8.86,1,9.71,9.71,0,0,1,10.07.93a7.22,7.22,0,0,1,2.06.34l.13,0a7.76,7.76,0,0,1,1.13.53,4.17,4.17,0,0,0,.46.26c0,.08.11.1.16.15l.53.41.53.54c.2.24.4.49.58.74l.25.4a8.91,8.91,0,0,1,.52,1.13c.08.28.17.55.23.83a6.26,6.26,0,0,1,.15,1.43V8a6.22,6.22,0,0,1-.13,1.21,6.09,6.09,0,0,1-.25.83,8.5,8.5,0,0,1-.54,1.09l-.21.37-.5.79-.9,1.33-.66,1a2.32,2.32,0,0,0-.22.3l-.57.81-.56.81a3.29,3.29,0,0,0-.23.33c-.27.38-.54.76-.79,1.14a.66.66,0,0,0-.12.17l-.41.57a.84.84,0,0,1-.92.36h0a1.14,1.14,0,0,1-.53-.44c-.11-.18-.24-.35-.36-.52a.45.45,0,0,0-.1-.14c-.26-.39-.53-.78-.81-1.16a1.94,1.94,0,0,0-.23-.33c-.17-.27-.36-.53-.54-.79s-.36-.53-.56-.78a1.61,1.61,0,0,0-.24-.34s0-.06,0-.09l-.48-.69-1-1.5A3.46,3.46,0,0,1,4.61,12a1.07,1.07,0,0,1-.13-.21,1,1,0,0,0-.15-.25,2.64,2.64,0,0,0-.2-.37A8.18,8.18,0,0,1,3.58,10l0-.08a5.89,5.89,0,0,1-.29-1.17,8.89,8.89,0,0,1-.06-1V7.58a7.84,7.84,0,0,1,.15-1.29c.06-.28.15-.55.23-.82A9.74,9.74,0,0,1,4.1,4.33l.25-.39c.18-.26.38-.5.58-.75l.53-.53.73-.57Zm4.52,8.5a1.81,1.81,0,0,0,.54-.31,2.37,2.37,0,0,0,.38-.33.89.89,0,0,0,.22-.29,1.36,1.36,0,0,0,.29-.49,2.63,2.63,0,0,0,.26-1.17,2.26,2.26,0,0,0,0-.26,2.34,2.34,0,0,0-.23-.86A1.81,1.81,0,0,0,12.26,6a2.21,2.21,0,0,0-.57-.57,1.89,1.89,0,0,0-.55-.32A2.49,2.49,0,0,0,10,4.91a2.49,2.49,0,0,0-1.14.24,1.89,1.89,0,0,0-.55.32,2.25,2.25,0,0,0-.59.6,1.62,1.62,0,0,0-.31.54,2.54,2.54,0,0,0-.24,1.12,2.65,2.65,0,0,0,.24,1.14,2.12,2.12,0,0,0,.33.56,2.28,2.28,0,0,0,.58.58,1.94,1.94,0,0,0,.54.31,2.49,2.49,0,0,0,1.14.24,2.19,2.19,0,0,0,.51,0A2,2,0,0,0,11.14,10.32Z"/></svg>