<svg id="Layer_1" data-name="Layer 1" xmlns="http://www.w3.org/2000/svg" viewBox="0 0 20 20"><defs><style>.cls-1{fill:#e2e2e2;}</style></defs><title>icons</title><path class="cls-1" d="M1,17.75a.45.45,0,0,1,0-.2l.12-.15c.16-.2.33-.39.47-.6A5.67,5.67,0,0,0,2.06,16a3,3,0,0,0,.23-.38,5,5,0,0,0,.5-1.11,2.54,2.54,0,0,0,.15-.44.08.08,0,0,0,0-.09,6.66,6.66,0,0,1-.56-.62L2.06,13c-.14-.25-.31-.49-.44-.75a9.36,9.36,0,0,1-.46-1.14,6.69,6.69,0,0,1-.22-2,6,6,0,0,1,.2-1.27l0-.13a8.4,8.4,0,0,1,.44-1.12l.46-.76.28-.38L2.77,5a9.14,9.14,0,0,1,1.55-1.3c.28-.18.57-.33.85-.49l.29-.14c.38-.17.76-.32,1.14-.46s.75-.21,1.12-.3l.33,0c.27-.05.54-.08.81-.12a.76.76,0,0,0,.21,0l.93,0c.32,0,.63,0,.95,0a8.33,8.33,0,0,1,1.22.17h.09c.38.1.76.19,1.14.31l.27.09q.44.16.87.36l.33.16.8.47c.3.2.59.42.88.65l.24.22a8.35,8.35,0,0,1,.86.92l.28.38.46.76a8.4,8.4,0,0,1,.44,1.12c.05.23.11.46.15.69a6.33,6.33,0,0,1,0,1.79c0,.3-.11.59-.18.89a7.18,7.18,0,0,1-.46,1.16l-.45.76-.28.38-.21.25c-.2.24-.42.45-.64.67l-.24.2c-.28.23-.58.45-.88.66l-.79.46-.36.18a11.25,11.25,0,0,1-1.14.45l-.33.1-.8.21h-.07a8,8,0,0,1-.83.14c-.45.06-.91.07-1.36.09a12.13,12.13,0,0,1-1.48-.11l-.78-.13c-.38-.09-.76-.19-1.14-.31l-.36-.13a.07.07,0,0,0-.09,0c-.22.18-.46.35-.69.51l-.25.15c-.29.16-.59.32-.89.46s-.74.29-1.12.41-.47.11-.71.15a10.37,10.37,0,0,1-1.25.12l-.13,0A.33.33,0,0,1,1,17.75Z"/></svg>