<svg id="Layer_1" data-name="Layer 1" xmlns="http://www.w3.org/2000/svg" viewBox="0 0 100 100"><defs><style>.cls-1{fill:rgb(180,180,180);}</style></defs><title>paymentIcons</title><path class="cls-1" d="M94.6,32.17q0,22.38,0,44.77a4.44,4.44,0,0,1-3.74,4.2,5.84,5.84,0,0,1-.93.08H10.12a4.5,4.5,0,0,1-4.58-3.36,3.9,3.9,0,0,1-.13-1q0-22.17,0-44.33c0-.33.07-.43.42-.43,1.36,0,2.72,0,4.08,0h4.4c1.49,0,3,0,4.48,0H50c1.5,0,3,0,4.49,0h4.4c1.49,0,3,0,4.48,0H76.74c1.5,0,3,0,4.49,0h4.48c1.49,0,3,0,4.48,0l.53,0ZM85.68,50c0-.76,0-1.52,0-2.28a2.23,2.23,0,0,0-2.38-2.2h-11c-.79,0-1.57,0-2.36,0a2.18,2.18,0,0,0-2.12,2.23c0,1.48,0,2.95,0,4.43A2.18,2.18,0,0,0,70,54.42c.51,0,1,0,1.54,0l5.34,0c1.46,0,2.93,0,4.4,0a16.56,16.56,0,0,0,2.44,0,2.23,2.23,0,0,0,1.9-1.61A13,13,0,0,0,85.68,50ZM72.34,63.38c-1.15,0-2.31,0-3.46,0a1,1,0,0,0-1,1q0,1.2,0,2.4a1,1,0,0,0,1,1c1.17,0,2.34,0,3.5,0,1.47,0,2.94,0,4.4,0s3,0,4.49,0l3.29,0a1.07,1.07,0,0,0,1.17-1.09c0-.73,0-1.46,0-2.2a1.07,1.07,0,0,0-1-1.13c-1.14,0-2.28,0-3.42,0H72.34ZM54.49,50H18.78c-1.14,0-2.28,0-3.42,0a1.06,1.06,0,0,0-1,1.09c0,.74,0,1.49,0,2.24a1.06,1.06,0,0,0,1,1.09c1.14,0,2.28,0,3.42,0,1.5,0,3,0,4.49,0s2.93,0,4.4,0,3,0,4.48,0,3,0,4.48,0,3,0,4.49,0,2.93,0,4.4,0,3,0,4.49,0,3,0,4.48,0c1.12,0,2.24,0,3.37,0a1,1,0,0,0,1-1q0-1.26,0-2.52a1,1,0,0,0-1-1C56.76,50,55.63,50,54.49,50ZM27.75,67.78c1.47.06,2.93.06,4.4,0s3,0,4.48,0c1.17.07,2.33,0,3.49,0a1,1,0,0,0,.92-.89,13.24,13.24,0,0,0,0-2.67,1,1,0,0,0-1-.86c-1.14,0-2.28,0-3.41,0H15.45a1.07,1.07,0,0,0-1.13,1.08q0,1.14,0,2.28a1,1,0,0,0,1,1.07c1.16,0,2.33,0,3.49,0,1.5.06,3,.06,4.49,0S26.25,67.82,27.75,67.78Z"/><path class="cls-1" d="M9.9,27.7c-1.38,0-2.75,0-4.12,0-.31,0-.38-.09-.38-.38,0-2.15,0-4.3,0-6.44A2.19,2.19,0,0,1,7.35,18.8l.53,0H92.12a2.24,2.24,0,0,1,2.43,1.73,1.75,1.75,0,0,1,0,.4c0,2.25,0,4.51,0,6.76l-4.4,0H9.9Z"/></svg>