<svg id="Layer_1" data-name="Layer 1" xmlns="http://www.w3.org/2000/svg" viewBox="0 0 100 100"><defs><style>.cls-1{fill:rgb(180,180,180);}</style></defs><title>paymentIcons</title><path class="cls-1" d="M5.41,51.86V29.65a4.41,4.41,0,0,1,5-4.28c1.4.22,2.72.75,4.1,1a45.4,45.4,0,0,0,6.88,1,55.72,55.72,0,0,0,6.59,0,77.4,77.4,0,0,0,8.31-1.08c5.76-1,11.41-2.59,17.1-4,3.73-.92,7.48-1.79,11.27-2.46A70,70,0,0,1,71.73,19c1.8-.14,3.6-.18,5.41-.14a41.24,41.24,0,0,1,14.13,2.81,4.94,4.94,0,0,1,2.51,1.77,4.57,4.57,0,0,1,.81,2.6V70.28a4.4,4.4,0,0,1-5.16,4.31c-1.32-.23-2.58-.73-3.89-1a46.81,46.81,0,0,0-7.37-1,55,55,0,0,0-9.34.37,99.25,99.25,0,0,0-10.84,2c-4.89,1.12-9.73,2.44-14.61,3.6-3.13.74-6.29,1.42-9.48,1.89a67.35,67.35,0,0,1-8.63.79A41.72,41.72,0,0,1,8.1,78.12a4.34,4.34,0,0,1-2.69-4Zm58-25a30.11,30.11,0,0,0-3.42.73l-.17,0-.11.05a2.53,2.53,0,0,0-.78.17c-.18,0-.35,0-.52.09l-3.89,1a4.59,4.59,0,0,0-1,.24l-3.51.9c-1.56.34-3.12.72-4.66,1.14l-3.83.88-.32,0-.09.05h0L36.63,33l-4.48.66-4.49.39-.25,0a.66.66,0,0,0-.37,0l-2.32.06A35.41,35.41,0,0,1,21.15,34c-.2,0-.33,0-.38.23a10,10,0,0,1-.87,2.36c-.35.55-.73,1.09-1.13,1.61a.93.93,0,0,0-.15.13,8.91,8.91,0,0,1-5.88,2.85.06.06,0,0,0-.07,0l-.51,0h0v0c-.06,1.44,0,2.88,0,4.32v9q0,4.41,0,8.84v2.16c0,.16,0,.34.23.32a11,11,0,0,1,2,.24,10.6,10.6,0,0,1,2.19,1l1.3.86,1,1a10.15,10.15,0,0,1,1.85,3.42,12.29,12.29,0,0,1,.3,1.8c0,.22.09.31.34.34.66.06,1.32.07,2,.07.12,0,.24,0,.35,0,1.36,0,2.71,0,4.05-.15,1.51-.1,3-.25,4.49-.49s3-.43,4.49-.78c1.15-.2,2.3-.43,3.43-.74a3.83,3.83,0,0,0,1-.25c1.48-.26,2.94-.65,4.4-1L50,70l4.48-1.13L58.16,68l.73-.14L63.37,67l4.48-.65a2.89,2.89,0,0,0,.72-.08c1.26-.1,2.51-.22,3.77-.33l4.4-.08c1.09.08,2.18.16,3.27.26.25,0,.33-.09.38-.29a8.22,8.22,0,0,1,.83-2.09,10.38,10.38,0,0,1,2-2.39,9,9,0,0,1,4.32-2c.21,0,.47,0,.37-.37,0-1.5,0-3,0-4.48V41.06c0-1.5,0-3,0-4.48,0-.67,0-1.33,0-2,0-.12,0-.26-.16-.27a12,12,0,0,1-2-.5,8.49,8.49,0,0,1-2.63-1.64A12.86,12.86,0,0,1,81.3,30a8.37,8.37,0,0,1-.91-2.29A9.56,9.56,0,0,1,80.16,26c0-.2-.07-.28-.28-.3-1-.1-2.09-.21-3.14-.21-1.45-.08-2.89.05-4.33.09s-3,.25-4.56.51c-.49.07-1,.12-1.47.21C65.37,26.49,64.36,26.6,63.37,26.88Z"/><path class="cls-1" d="M52.35,63.28a14.25,14.25,0,0,1-2.35.3,13.68,13.68,0,0,1-1.57-.15,10.59,10.59,0,0,1-6.49-4,14.8,14.8,0,0,1-2.51-4.92A18.26,18.26,0,0,1,38.82,50c0-.32,0-.65,0-1a19.11,19.11,0,0,1,.61-3.51A18.1,18.1,0,0,1,41.12,42l.63-.9A10.72,10.72,0,0,1,44,38.81c.5-.38,1-.69,1.56-1a13.79,13.79,0,0,1,3.26-1L50,36.68h.18l.55,0,.48,0,.9.19a14.28,14.28,0,0,1,2.37.86,12.44,12.44,0,0,1,4.71,4.73,18.29,18.29,0,0,1,1.32,3.09,1.5,1.5,0,0,0,0,.2,20.42,20.42,0,0,1,.5,2.59,7.11,7.11,0,0,0,.14,1.6,18.66,18.66,0,0,1-.6,4.4l-.18.57a16.8,16.8,0,0,1-1.52,3.31l-.41.6c-.18.21-.34.44-.53.64-.38.42-.74.85-1.16,1.24a14.84,14.84,0,0,1-2.29,1.66A14.5,14.5,0,0,1,52.35,63.28Z"/></svg>